<svg xmlns="http://www.w3.org/2000/svg" width="106.66" height="35" viewBox="0 0 106.66 35"><rect class="svg__rect" x="0" y="0" width="67" height="35" fill="#F3A231"/><rect class="svg__rect" x="65" y="0" width="41.66" height="35" fill="#B49004"/><path class="svg__text" d="M13.61 19.57L13.61 19.57L15.09 19.57Q15.09 20.25 15.43 20.59Q15.76 20.93 16.40 20.93L16.40 20.93Q17.00 20.93 17.35 20.54Q17.71 20.14 17.71 19.45L17.71 19.45L17.71 13.47L19.19 13.47L19.19 19.45Q19.19 20.68 18.42 21.40Q17.66 22.12 16.40 22.12L16.40 22.12Q15.07 22.12 14.34 21.44Q13.61 20.77 13.61 19.57ZM24.65 22L23.11 22L26.33 13.47L27.66 13.47L30.89 22L29.34 22L28.64 20.01L25.34 20.01L24.65 22ZM26.99 15.28L25.75 18.82L28.23 18.82L26.99 15.28ZM37.14 22L34.08 13.47L35.70 13.47L37.85 20.14L40.02 13.47L41.64 13.47L38.57 22L37.14 22ZM46.37 22L44.83 22L48.06 13.47L49.39 13.47L52.61 22L51.07 22L50.37 20.01L47.06 20.01L46.37 22ZM48.72 15.28L47.48 18.82L49.95 18.82L48.72 15.28Z" fill="#FFFFFF"/><path class="svg__text" d="M79.98 15.44L78.42 15.44L78.42 13.60L82.36 13.60L82.36 22L79.98 22L79.98 15.44ZM86.89 16.30L86.89 16.30Q86.89 15.45 87.32 14.80Q87.76 14.14 88.51 13.79Q89.26 13.43 90.17 13.43L90.17 13.43Q91.98 13.43 93.03 14.50Q94.08 15.57 94.08 17.57L94.08 17.57Q94.08 19.01 93.52 20.05Q92.96 21.09 91.94 21.63Q90.93 22.17 89.60 22.17L89.60 22.17Q88.89 22.17 88.24 22.01Q87.60 21.84 87.14 21.55L87.14 21.55L88.00 19.85Q88.61 20.28 89.55 20.28L89.55 20.28Q90.45 20.28 91.01 19.79Q91.56 19.29 91.66 18.34L91.66 18.34Q90.94 18.95 89.78 18.95L89.78 18.95Q88.98 18.95 88.33 18.62Q87.67 18.29 87.28 17.68Q86.89 17.08 86.89 16.30ZM89.19 16.19L89.19 16.19Q89.19 16.67 89.51 16.96Q89.83 17.25 90.34 17.25L90.34 17.25Q90.86 17.25 91.18 16.96Q91.50 16.66 91.50 16.18L91.50 16.18Q91.50 15.71 91.19 15.42Q90.87 15.12 90.33 15.12L90.33 15.12Q89.83 15.12 89.51 15.41Q89.19 15.70 89.19 16.19Z" fill="#FFFFFF" x="78"/></svg>