<svg xmlns="http://www.w3.org/2000/svg" width="156.35000000000002" height="35" viewBox="0 0 156.35000000000002 35"><rect class="svg__rect" x="0" y="0" width="83.94" height="35" fill="#31C4F3"/><rect class="svg__rect" x="81.94" y="0" width="74.41000000000001" height="35" fill="#389AD5"/><path class="svg__text" d="M13.78 19.42L13.78 19.42L15.27 19.42Q15.27 20.15 15.75 20.55Q16.23 20.95 17.12 20.95L17.12 20.95Q17.90 20.95 18.29 20.63Q18.68 20.32 18.68 19.80L18.68 19.80Q18.68 19.24 18.28 18.94Q17.89 18.63 16.85 18.32Q15.82 18.01 15.21 17.63L15.21 17.63Q14.05 16.90 14.05 15.72L14.05 15.72Q14.05 14.69 14.89 14.02Q15.73 13.35 17.07 13.35L17.07 13.35Q17.96 13.35 18.66 13.68Q19.36 14.01 19.75 14.61Q20.15 15.22 20.15 15.96L20.15 15.96L18.68 15.96Q18.68 15.29 18.26 14.91Q17.84 14.54 17.06 14.54L17.06 14.54Q16.33 14.54 15.93 14.85Q15.53 15.16 15.53 15.71L15.53 15.71Q15.53 16.18 15.96 16.50Q16.40 16.81 17.39 17.10Q18.39 17.40 18.99 17.78Q19.60 18.16 19.88 18.65Q20.16 19.13 20.16 19.79L20.16 19.79Q20.16 20.86 19.34 21.49Q18.52 22.12 17.12 22.12L17.12 22.12Q16.20 22.12 15.42 21.77Q14.64 21.43 14.21 20.83Q13.78 20.22 13.78 19.42ZM25.93 22L24.45 22L24.45 13.47L27.71 13.47Q29.14 13.47 29.98 14.21Q30.82 14.96 30.82 16.18L30.82 16.18Q30.82 17.44 30.00 18.13Q29.18 18.83 27.69 18.83L27.69 18.83L25.93 18.83L25.93 22ZM25.93 14.66L25.93 17.64L27.71 17.64Q28.50 17.64 28.92 17.27Q29.33 16.90 29.33 16.19L29.33 16.19Q29.33 15.50 28.91 15.09Q28.49 14.68 27.75 14.66L27.75 14.66L25.93 14.66ZM36.67 22L35.19 22L35.19 13.47L36.67 13.47L36.67 22ZM41.23 18.13L41.23 18.13L41.23 17.46Q41.23 15.53 42.16 14.44Q43.09 13.35 44.74 13.35L44.74 13.35Q46.17 13.35 47.01 14.05Q47.84 14.76 48.01 16.08L48.01 16.08L46.56 16.08Q46.31 14.54 44.77 14.54L44.77 14.54Q43.78 14.54 43.26 15.26Q42.74 15.98 42.72 17.37L42.72 17.37L42.72 18.02Q42.72 19.40 43.31 20.17Q43.89 20.93 44.93 20.93L44.93 20.93Q46.06 20.93 46.54 20.42L46.54 20.42L46.54 18.75L44.79 18.75L44.79 17.62L48.02 17.62L48.02 20.89Q47.56 21.50 46.74 21.81Q45.92 22.12 44.87 22.12L44.87 22.12Q43.80 22.12 42.98 21.63Q42.15 21.14 41.70 20.24Q41.25 19.33 41.23 18.13ZM52.37 18.00L52.37 18.00L52.37 17.52Q52.37 16.28 52.81 15.32Q53.25 14.37 54.06 13.86Q54.86 13.35 55.91 13.35Q56.95 13.35 57.76 13.85Q58.56 14.35 59.00 15.29Q59.44 16.23 59.45 17.48L59.45 17.48L59.45 17.96Q59.45 19.21 59.01 20.16Q58.58 21.10 57.77 21.61Q56.97 22.12 55.92 22.12L55.92 22.12Q54.88 22.12 54.07 21.61Q53.26 21.10 52.82 20.17Q52.37 19.23 52.37 18.00ZM53.85 17.46L53.85 17.96Q53.85 19.36 54.40 20.13Q54.95 20.90 55.92 20.90L55.92 20.90Q56.90 20.90 57.43 20.15Q57.96 19.40 57.96 17.96L57.96 17.96L57.96 17.51Q57.96 16.09 57.43 15.34Q56.89 14.58 55.91 14.58L55.91 14.58Q54.95 14.58 54.40 15.33Q53.86 16.09 53.85 17.46L53.85 17.46ZM65.59 14.66L62.96 14.66L62.96 13.47L69.72 13.47L69.72 14.66L67.06 14.66L67.06 22L65.59 22L65.59 14.66Z" fill="#FFFFFF"/><path class="svg__text" d="M96.92 15.44L95.36 15.44L95.36 13.60L99.30 13.60L99.30 22L96.92 22L96.92 15.44ZM103.96 20.75L103.96 20.75Q103.96 20.15 104.35 19.78Q104.74 19.41 105.33 19.41L105.33 19.41Q105.92 19.41 106.31 19.78Q106.69 20.15 106.69 20.75L106.69 20.75Q106.69 21.34 106.30 21.72Q105.91 22.11 105.33 22.11L105.33 22.11Q104.75 22.11 104.35 21.72Q103.96 21.34 103.96 20.75ZM112.21 16.17L110.44 15.19Q110.93 14.37 111.82 13.90Q112.71 13.43 113.92 13.43L113.92 13.43Q114.88 13.43 115.62 13.74Q116.35 14.05 116.77 14.64Q117.19 15.22 117.19 15.99L117.19 15.99Q117.19 16.67 116.89 17.28Q116.59 17.89 115.76 18.65L115.76 18.65L114.17 20.11L117.41 20.11L117.41 22L110.87 22L110.87 20.51L114.02 17.57Q114.47 17.14 114.63 16.83Q114.78 16.53 114.78 16.22L114.78 16.22Q114.78 15.81 114.51 15.58Q114.23 15.35 113.71 15.35L113.71 15.35Q113.24 15.35 112.85 15.56Q112.46 15.77 112.21 16.17L112.21 16.17ZM121.59 17.80L121.59 17.80Q121.59 16.45 122.06 15.46Q122.54 14.46 123.38 13.95Q124.22 13.43 125.30 13.43L125.30 13.43Q126.36 13.43 127.20 13.95Q128.04 14.46 128.52 15.46Q128.99 16.45 128.99 17.80L128.99 17.80Q128.99 19.15 128.52 20.15Q128.04 21.14 127.21 21.65Q126.37 22.17 125.30 22.17L125.30 22.17Q124.22 22.17 123.38 21.65Q122.54 21.14 122.06 20.15Q121.59 19.16 121.59 17.80ZM123.98 17.80L123.98 17.80Q123.98 19.06 124.33 19.64Q124.69 20.22 125.30 20.22L125.30 20.22Q125.90 20.22 126.25 19.64Q126.61 19.06 126.61 17.80L126.61 17.80Q126.61 16.54 126.25 15.96Q125.90 15.38 125.30 15.38L125.30 15.38Q124.69 15.38 124.33 15.96Q123.98 16.54 123.98 17.80ZM133.21 20.75L133.21 20.75Q133.21 20.15 133.60 19.78Q133.99 19.41 134.58 19.41L134.58 19.41Q135.17 19.41 135.56 19.78Q135.94 20.15 135.94 20.75L135.94 20.75Q135.94 21.34 135.55 21.72Q135.16 22.11 134.58 22.11L134.58 22.11Q134.00 22.11 133.60 21.72Q133.21 21.34 133.21 20.75ZM141.40 15.44L139.83 15.44L139.83 13.60L143.77 13.60L143.77 22L141.40 22L141.40 15.44Z" fill="#FFFFFF" x="94.94"/></svg>